<svg xmlns="http://www.w3.org/2000/svg" xmlns:xlink="http://www.w3.org/1999/xlink" width="355.859" height="352.458" viewBox="0 0 355.859 352.458">
  <defs>
    <clipPath id="clip-path">
      <path id="Clip_6" data-name="Clip 6" d="M0,0H50.028V33.64H0Z" fill="none"/>
    </clipPath>
  </defs>
  <g id="Group_2231" data-name="Group 2231" transform="translate(-415 -571)">
    <g id="Group_2197" data-name="Group 2197" transform="translate(0 -29)">
      <g id="Group_1536" data-name="Group 1536" transform="translate(520.271 759.505)">
        <path id="Path_861" data-name="Path 861" d="M114.265,390.979a7.015,7.015,0,0,0-14.03,0V400.1l-3.674,3.672,1.647,1.646,2.044-2.044a7.014,7.014,0,0,0,13.989.1l1.943,1.944,1.646-1.646-3.565-3.565Zm-11.7,0a4.689,4.689,0,0,1,9.378,0v6.9l-4.743-4.741-4.634,4.634Zm9.378,11.926a4.689,4.689,0,0,1-9.378,0V401.06l4.634-4.635,4.743,4.744Z" transform="translate(-96.561 -383.965)" fill="#ff6863"/>
        <path id="Path_862" data-name="Path 862" d="M121.1,433.931a2.023,2.023,0,1,0,2.022-2.025A2.023,2.023,0,0,0,121.1,433.931Z" transform="translate(-112.489 -415.082)" fill="#ff6863"/>
        <path id="Path_863" data-name="Path 863" d="M286.464,423.738a1.011,1.011,0,1,0,1.012,1.012A1.012,1.012,0,0,0,286.464,423.738Z" transform="translate(-219.163 -409.78)" fill="#ff6863"/>
        <path id="Path_864" data-name="Path 864" d="M171.616,404.788l-3.021-7.692h-2.586l4.341,10.494L168.3,412.2h2.556l6.4-15.1h-2.571Z" transform="translate(-141.637 -392.488)" fill="#ff6863"/>
        <path id="Path_865" data-name="Path 865" d="M204.087,396.629a5.277,5.277,0,0,0-4.026,1.668,6.273,6.273,0,0,0,0,8.046,5.7,5.7,0,0,0,8.049,0,6.275,6.275,0,0,0,0-8.048A5.279,5.279,0,0,0,204.087,396.629Zm2.307,8.169a3.16,3.16,0,0,1-4.616,0,4.133,4.133,0,0,1,0-4.957,3.159,3.159,0,0,1,4.616,0,4.133,4.133,0,0,1,0,4.958Z" transform="translate(-162.793 -392.185)" fill="#ff6863"/>
        <path id="Path_866" data-name="Path 866" d="M242.258,403.4a2.6,2.6,0,0,1-.773,1.957,2.64,2.64,0,0,1-1.909.746,2.316,2.316,0,0,1-1.772-.711,2.727,2.727,0,0,1-.686-1.972V397.1h-2.351v6.366a4.828,4.828,0,0,0,1.383,3.578,4.027,4.027,0,0,0,1.434.955,5.282,5.282,0,0,0,1.909.315,3.731,3.731,0,0,0,2.042-.574,5.881,5.881,0,0,0,.722-.548v.96h2.352V397.1h-2.352Z" transform="translate(-186.265 -392.488)" fill="#ff6863"/>
        <path id="Path_867" data-name="Path 867" d="M276.038,398.984v-2.351h-.511a4.129,4.129,0,0,0-1.809.365,4.507,4.507,0,0,0-1.549,1.139V396.8h-2.351v11.051h2.351v-4.912a4.364,4.364,0,0,1,.9-2.777,2.87,2.87,0,0,1,2.381-1.174Z" transform="translate(-209.016 -392.187)" fill="#ff6863"/>
        <path id="Path_868" data-name="Path 868" d="M304.928,397.041a4.514,4.514,0,0,0-1.549,1.143v-1.342h-2.351v11.051h2.351v-4.912a4.373,4.373,0,0,1,.895-2.777,2.871,2.871,0,0,1,2.381-1.174h.593v-2.351h-.511A4.15,4.15,0,0,0,304.928,397.041Z" transform="translate(-229.273 -392.217)" fill="#ff6863"/>
        <path id="Path_869" data-name="Path 869" d="M325.818,396.678a5.282,5.282,0,0,0-4.027,1.666,5.743,5.743,0,0,0-1.457,4.023,5.661,5.661,0,0,0,1.523,4.026,5.374,5.374,0,0,0,4.063,1.662,5.273,5.273,0,0,0,3.221-.939,5.371,5.371,0,0,0,1.827-2.434l.212-.554h-2.518l-.115.218a2.7,2.7,0,0,1-2.607,1.5,3.042,3.042,0,0,1-2.213-.827,3.213,3.213,0,0,1-.924-1.633h8.5v-1.021a5.751,5.751,0,0,0-1.459-4.025A5.279,5.279,0,0,0,325.818,396.678Zm-2.978,4.462a3.052,3.052,0,0,1,.878-1.481,3.235,3.235,0,0,1,4.2,0,3.059,3.059,0,0,1,.882,1.483Z" transform="translate(-241.804 -392.217)" fill="#ff6863"/>
        <path id="Path_870" data-name="Path 870" d="M363.4,396.992a5.255,5.255,0,0,0-1.909-.314,3.716,3.716,0,0,0-2.04.575,5.813,5.813,0,0,0-.725.548v-.959h-2.352v11.051h2.352v-6.3a2.594,2.594,0,0,1,.775-1.957,2.638,2.638,0,0,1,1.908-.747,2.317,2.317,0,0,1,1.772.711,2.727,2.727,0,0,1,.686,1.973v6.323h2.351v-6.365a4.82,4.82,0,0,0-1.383-3.578A3.977,3.977,0,0,0,363.4,396.992Z" transform="translate(-265.197 -392.217)" fill="#ff6863"/>
        <path id="Path_871" data-name="Path 871" d="M392.079,386.7h-2.352v3.664h-2.088v2.166h2.088v8.885h2.352v-8.885h2.354v-2.166h-2.354Z" transform="translate(-285.489 -385.742)" fill="#ff6863"/>
        <path id="Path_872" data-name="Path 872" d="M417.429,397.816a4.529,4.529,0,0,0-3.154-1.138,5.169,5.169,0,0,0-4.009,1.671,6.272,6.272,0,0,0,0,8.036,5.051,5.051,0,0,0,3.9,1.669,4.726,4.726,0,0,0,3.256-1.124v.962h2.35V396.842h-2.35Zm.082,4.551a3.668,3.668,0,0,1-.826,2.48,2.822,2.822,0,0,1-2.307,1,2.986,2.986,0,0,1-2.355-1.01,3.989,3.989,0,0,1,0-4.945,2.984,2.984,0,0,1,2.357-1.009,2.831,2.831,0,0,1,2.309,1A3.667,3.667,0,0,1,417.511,402.367Z" transform="translate(-299.231 -392.217)" fill="#ff6863"/>
        <rect id="Rectangle_871" data-name="Rectangle 871" width="2.35" height="15.145" transform="translate(122.873 0.531)" fill="#ff6863"/>
        <path id="Path_873" data-name="Path 873" d="M467.52,402.788a3.927,3.927,0,0,0-1.4-.973,8.916,8.916,0,0,0-1.728-.514c-.576-.113-1.119-.238-1.618-.372a4.246,4.246,0,0,1-1.148-.473.628.628,0,0,1-.312-.585c0-.292,0-1.067,1.956-1.067,1.8,0,2.1.71,2.164,1.24l.045.357h2.373l-.052-.455a3.364,3.364,0,0,0-1.19-2.273,4.908,4.908,0,0,0-3.228-1,5.32,5.32,0,0,0-3.244.851,2.951,2.951,0,0,0-1.176,2.485,2.461,2.461,0,0,0,.612,1.752,3.948,3.948,0,0,0,1.4.938,9.333,9.333,0,0,0,1.723.5c.582.114,1.126.242,1.613.378a4.121,4.121,0,0,1,1.144.5.7.7,0,0,1,.321.634.956.956,0,0,1-.72.948,3.549,3.549,0,0,1-.79.2,4.329,4.329,0,0,1-1.841-.087,1.721,1.721,0,0,1-1.321-1.557l-.038-.367h-2.4l.025.43a3.54,3.54,0,0,0,1.329,2.644,5.289,5.289,0,0,0,3.52,1.119,5.633,5.633,0,0,0,3.282-.86,3.011,3.011,0,0,0,1.3-2.618A2.577,2.577,0,0,0,467.52,402.788Z" transform="translate(-331.592 -392.217)" fill="#ff6863"/>
      </g>
      <g id="Group_1606" data-name="Group 1606" transform="translate(425 610)">
        <g id="Path_2342" data-name="Path 2342" transform="translate(18.708 15.269)" fill="none">
          <path d="M146.264,0A146.264,146.264,0,1,1,0,146.264,146.264,146.264,0,0,1,146.264,0Z" stroke="none"/>
          <path d="M 146.2641906738281 1.999969482421875 C 136.4747314453125 1.999969482421875 126.6920318603516 2.986083984375 117.1878051757812 4.930938720703125 C 107.9261474609375 6.826171875 98.81607055664062 9.654083251953125 90.11065673828125 13.336181640625 C 81.56285095214844 16.95159912109375 73.31831359863281 21.42660522460938 65.60610961914062 26.63687133789062 C 57.96661376953125 31.7979736328125 50.78273010253906 37.72525024414062 44.25399780273438 44.25398254394531 C 37.72526550292969 50.78274536132812 31.79800415039062 57.96664428710938 26.63687133789062 65.60609436035156 C 21.42657470703125 73.31832885742188 16.95156860351562 81.5628662109375 13.33615112304688 90.11067199707031 C 9.654083251953125 98.81605529785156 6.826202392578125 107.9261322021484 4.93096923828125 117.1877899169922 C 2.986114501953125 126.6920166015625 2 136.4747161865234 2 146.2641754150391 C 2 156.0536346435547 2.986114501953125 165.8363342285156 4.93096923828125 175.3405609130859 C 6.826202392578125 184.6022033691406 9.654083251953125 193.7122802734375 13.33615112304688 202.4176788330078 C 16.95156860351562 210.9654846191406 21.42657470703125 219.2100219726562 26.63687133789062 226.9222412109375 C 31.79800415039062 234.5617065429688 37.72526550292969 241.74560546875 44.25399780273438 248.2743225097656 C 50.78273010253906 254.8031005859375 57.96661376953125 260.7303161621094 65.60610961914062 265.8914489746094 C 73.31831359863281 271.1017456054688 81.56285095214844 275.5767517089844 90.11065673828125 279.1921691894531 C 98.81607055664062 282.874267578125 107.9261474609375 285.7021484375 117.1878051757812 287.5973815917969 C 126.6920318603516 289.5422058105469 136.4747314453125 290.5283203125 146.2641906738281 290.5283203125 C 156.0536499023438 290.5283203125 165.8363342285156 289.5422058105469 175.340576171875 287.5973815917969 C 184.6022338867188 285.7021484375 193.7123107910156 282.874267578125 202.4176940917969 279.1921691894531 C 210.9654998779297 275.5767517089844 219.2100372314453 271.1017456054688 226.9222717285156 265.8914489746094 C 234.5617370605469 260.7303161621094 241.74560546875 254.8031005859375 248.2743835449219 248.2743225097656 C 254.8031158447266 241.74560546875 260.7303771972656 234.5617065429688 265.8915100097656 226.9222412109375 C 271.1017761230469 219.2100219726562 275.5767822265625 210.9654846191406 279.1921997070312 202.4176788330078 C 282.874267578125 193.7122802734375 285.7021789550781 184.6022033691406 287.597412109375 175.3405609130859 C 289.5422668457031 165.8363342285156 290.5283813476562 156.0536346435547 290.5283813476562 146.2641754150391 C 290.5283813476562 136.4747161865234 289.5422668457031 126.6920166015625 287.597412109375 117.1877899169922 C 285.7021789550781 107.9261322021484 282.874267578125 98.81605529785156 279.1921997070312 90.11067199707031 C 275.5767822265625 81.5628662109375 271.1017761230469 73.31832885742188 265.8915100097656 65.60609436035156 C 260.7303771972656 57.96664428710938 254.8031158447266 50.78274536132812 248.2743835449219 44.25398254394531 C 241.74560546875 37.72525024414062 234.5617370605469 31.7979736328125 226.9222717285156 26.63687133789062 C 219.2100372314453 21.42660522460938 210.9654998779297 16.95159912109375 202.4176940917969 13.336181640625 C 193.7123107910156 9.654083251953125 184.6022338867188 6.826171875 175.340576171875 4.930938720703125 C 165.8363342285156 2.986083984375 156.0536499023438 1.999969482421875 146.2641906738281 1.999969482421875 M 146.2641906738281 -3.0517578125e-05 C 227.0436553955078 -3.0517578125e-05 292.5283813476562 65.48471069335938 292.5283813476562 146.2641754150391 C 292.5283813476562 227.0436401367188 227.0436553955078 292.5283203125 146.2641906738281 292.5283203125 C 65.48469543457031 292.5283203125 0 227.0436401367188 0 146.2641754150391 C 0 65.48471069335938 65.48469543457031 -3.0517578125e-05 146.2641906738281 -3.0517578125e-05 Z" stroke="none" fill="#ebebeb"/>
        </g>
        <g id="Ellipse_435" data-name="Ellipse 435" transform="translate(84.487 0)" fill="#0a4387" stroke="#fff" stroke-width="10">
          <ellipse cx="25.067" cy="25.067" rx="25.067" ry="25.067" stroke="none"/>
          <ellipse cx="25.067" cy="25.067" rx="30.067" ry="30.067" fill="none"/>
        </g>
        <g id="Ellipse_436" data-name="Ellipse 436" transform="translate(237.284 244.907)" fill="#7c45b2" stroke="#fff" stroke-width="10">
          <ellipse cx="25.067" cy="25.067" rx="25.067" ry="25.067" stroke="none"/>
          <ellipse cx="25.067" cy="25.067" rx="30.067" ry="30.067" fill="none"/>
        </g>
        <g id="Group_1534" data-name="Group 1534" transform="translate(99.232 14.745)">
          <path id="Path_896" data-name="Path 896" d="M167.592,174.384a2.5,2.5,0,0,1-2.522-2.518,2.524,2.524,0,1,1,2.522,2.518Z" transform="translate(-148.928 -153.292)" fill="#09aef1" fill-rule="evenodd"/>
          <path id="Path_897" data-name="Path 897" d="M66.168,73.2c-.147-.079-.29-.166-.447-.257.107-.093.2-.173.287-.249a5.694,5.694,0,0,0,.923-.928A5.228,5.228,0,0,0,67.966,68.2,4.847,4.847,0,0,0,65.354,64a7.569,7.569,0,0,0-3.705-.89c-1.711-.017-3.423-.011-5.135,0a2.139,2.139,0,0,0-1.707.835,2.719,2.719,0,0,0-.465,1.016V83.954c.073,0,.146-.005.219-.005q3.563,0,7.125,0a9.221,9.221,0,0,0,3.007-.476,5.815,5.815,0,0,0,3.363-2.659,5.943,5.943,0,0,0,.6-4.249A4.745,4.745,0,0,0,66.168,73.2Zm-7.807-3.63h0c0-.57-.014-1.141,0-1.71a1.169,1.169,0,0,1,1.235-1.3,12.051,12.051,0,0,1,2.4.037,2.067,2.067,0,0,1,1.831,1.75,2.835,2.835,0,0,1-.5,2.39,2.146,2.146,0,0,1-1.765.8c-1.014.013-2.029,0-3.043.007-.142,0-.174-.042-.172-.178C58.365,70.76,58.361,70.164,58.361,69.567Zm5.712,9.9a2.48,2.48,0,0,1-2,.934c-1.187.024-2.375,0-3.562.01-.129,0-.151-.043-.15-.159,0-.717,0-1.433,0-2.15h.005c0-.683-.013-1.367,0-2.05A1.184,1.184,0,0,1,59.7,74.766c.75,0,1.5-.014,2.249,0a2.585,2.585,0,0,1,2.3,1.208A3.305,3.305,0,0,1,64.072,79.468Z" transform="translate(-54.343 -63.101)" fill="#fff"/>
        </g>
        <g id="Group_1535" data-name="Group 1535" transform="translate(251.44 260.4)">
          <g id="Group_676" data-name="Group 676" transform="translate(0 17.413)">
            <ellipse id="Ellipse_324" data-name="Ellipse 324" cx="1.467" cy="1.467" rx="1.467" ry="1.467" transform="translate(19.42 0)" fill="#006bb5"/>
            <ellipse id="Ellipse_325" data-name="Ellipse 325" cx="1.467" cy="1.467" rx="1.467" ry="1.467" transform="translate(14.565 0)" fill="#533786"/>
            <path id="Path_915" data-name="Path 915" d="M111.585,74.382a1.467,1.467,0,1,1-1.467-1.467A1.467,1.467,0,0,1,111.585,74.382Z" transform="translate(-98.942 -72.915)" fill="#379c48" fill-rule="evenodd"/>
            <ellipse id="Ellipse_326" data-name="Ellipse 326" cx="1.467" cy="1.467" rx="1.467" ry="1.467" transform="translate(4.855 0)" fill="#f68807"/>
            <ellipse id="Ellipse_327" data-name="Ellipse 327" cx="1.467" cy="1.467" rx="1.467" ry="1.467" transform="translate(0 0)" fill="#dc0b17"/>
          </g>
          <path id="Path_916" data-name="Path 916" d="M40.585,45.98a8.677,8.677,0,0,1-5.172,1.809,4.145,4.145,0,0,1-3.469-1.767,3.144,3.144,0,0,1-.6-2.086,3.785,3.785,0,0,1,.659-2.171,4.389,4.389,0,0,1,2.363-1.4c.961-.289,2.02-.5,3.044-.724.78-.167,1.553-.318,2.3-.532a1.485,1.485,0,0,0,.638-.3,2.886,2.886,0,0,0-.213-.936,2.3,2.3,0,0,0-.319-.83,2.418,2.418,0,0,0-1.234-.617,4.475,4.475,0,0,0-2.639.341,6.368,6.368,0,0,0-1.682,1.767.98.98,0,0,1-.469.383,1.6,1.6,0,0,1-1.682-.511,1.5,1.5,0,0,1-.17-.724,3.038,3.038,0,0,1,1.192-2.362,5.215,5.215,0,0,1,2.406-1.128,14.593,14.593,0,0,1,2.554-.085,7.7,7.7,0,0,1,3.874.7,3.62,3.62,0,0,1,1.256,1.426,7.193,7.193,0,0,1,.4,2.363,39.682,39.682,0,0,0,.382,6.492,7.242,7.242,0,0,1,.235,1.128,1.18,1.18,0,0,1-.639,1.256,1.462,1.462,0,0,1-1.32.255C41.517,47.455,41,46.487,40.585,45.98Zm-.6-4.832a38.466,38.466,0,0,0-3.831.958,3.652,3.652,0,0,0-.533.17,1.612,1.612,0,0,0-.872,1.255,1.682,1.682,0,0,0,.362,1.235,2.088,2.088,0,0,0,1.383.745,4.237,4.237,0,0,0,1.809-.277,3.276,3.276,0,0,0,2.043-3.171,1.789,1.789,0,0,0-.106-.937A.722.722,0,0,0,39.989,41.148Z" transform="translate(-26.693 -34.089)" fill="#fff" fill-rule="evenodd"/>
        </g>
        <g id="Ellipse_438" data-name="Ellipse 438" transform="translate(15.908 214.294)" fill="#1f3561" stroke="#fff" stroke-width="10">
          <ellipse cx="25.067" cy="25.067" rx="25.067" ry="25.067" stroke="none"/>
          <ellipse cx="25.067" cy="25.067" rx="30.067" ry="30.067" fill="none"/>
        </g>
        <path id="Path_2341" data-name="Path 2341" d="M317.636,32.732,315.1,38.1a1.454,1.454,0,0,1-2.593,0l-2.519-5.427c-.852-1.556-2.037-2.778-2.037-5.279,0-4.408,2.26-6.483,5.89-6.483,3.649,0,5.927,2.074,5.927,6.483,0,2.537-1.222,3.519-2.093,5.334ZM313.747,23.4c-1.926,0-2.964,1.111-2.964,3.408a1.986,1.986,0,0,0,.185.741,2.847,2.847,0,0,0,5.686-.3,1.12,1.12,0,0,0,.074-.445c0-2.278-1.019-3.426-2.963-3.426Zm-7.038.3h-1.241v6.52a1.014,1.014,0,0,0,1.056.982,1.258,1.258,0,0,1,1.259,1.3,1.245,1.245,0,0,1-1.259,1.241,3.572,3.572,0,0,1-3.89-3.667V23.694h-.611a1.2,1.2,0,1,1,0-2.408h.611v-2.26a1.426,1.426,0,1,1,2.852,0v2.26h1.241a1.223,1.223,0,0,1,0,2.445Z" transform="translate(-269.557 211.373)" fill="#fff"/>
        <g id="Ellipse_432" data-name="Ellipse 432" transform="translate(0 92.691)" fill="#ff5758" stroke="#fff" stroke-linecap="round" stroke-width="10">
          <ellipse cx="25.067" cy="25.067" rx="25.067" ry="25.067" stroke="none"/>
          <ellipse cx="25.067" cy="25.067" rx="30.067" ry="30.067" fill="none"/>
        </g>
        <g id="Ellipse_440" data-name="Ellipse 440" transform="translate(285.725 131.77)" fill="#eac220" stroke="#fff" stroke-width="10">
          <ellipse cx="25.067" cy="25.067" rx="25.067" ry="25.067" stroke="none"/>
          <ellipse cx="25.067" cy="25.067" rx="30.067" ry="30.067" fill="none"/>
        </g>
        <g id="Ellipse_434" data-name="Ellipse 434" transform="translate(118.772 282.324)" fill="#37e0a1" stroke="#fff" stroke-width="10">
          <ellipse cx="25.067" cy="25.067" rx="25.067" ry="25.067" stroke="none"/>
          <ellipse cx="25.067" cy="25.067" rx="30.067" ry="30.067" fill="none"/>
        </g>
        <path id="Path_2339" data-name="Path 2339" d="M379.41,321.163c-.1-.251-.209-.522-.313-.752-.168-.376-.334-.731-.481-1.065l-.021-.021c-1.441-3.134-2.987-6.309-4.616-9.443l-.063-.125c-.167-.314-.334-.648-.5-.982a5.974,5.974,0,0,0-.752-1.149,3.374,3.374,0,0,0-2.653-1.3,3.506,3.506,0,0,0-2.674,1.253,7.236,7.236,0,0,0-.753,1.149c-.167.334-.334.669-.5.982l-.062.126c-1.608,3.133-3.176,6.309-4.617,9.443l-.021.041c-.146.334-.313.689-.48,1.066q-.157.344-.313.752a4.7,4.7,0,0,0-.251,2.257,4.44,4.44,0,0,0,2.716,3.467,4.286,4.286,0,0,0,1.692.334,4.674,4.674,0,0,0,.543-.042,5.512,5.512,0,0,0,2.089-.71,10.586,10.586,0,0,0,2.591-2.173,10.977,10.977,0,0,0,2.59,2.173,5.512,5.512,0,0,0,2.089.71,4.683,4.683,0,0,0,.543.042,4.214,4.214,0,0,0,1.692-.334A4.43,4.43,0,0,0,379.6,323.4,3.953,3.953,0,0,0,379.41,321.163Zm-9.422,1.086a10.309,10.309,0,0,1-2.11-3.886,3.375,3.375,0,0,1-.063-1.275,2.031,2.031,0,0,1,.334-.877,2.217,2.217,0,0,1,1.838-.92,2.138,2.138,0,0,1,1.838.92,2.023,2.023,0,0,1,.334.877,3.358,3.358,0,0,1-.063,1.275A10.618,10.618,0,0,1,369.988,322.249Zm8.336.982a3.1,3.1,0,0,1-1.9,2.444,3.16,3.16,0,0,1-1.588.209,4.117,4.117,0,0,1-1.588-.543,9.774,9.774,0,0,1-2.382-2.027,11.785,11.785,0,0,0,2.528-4.617,5.241,5.241,0,0,0,.1-1.776,3.393,3.393,0,0,0-.564-1.421,3.52,3.52,0,0,0-2.946-1.483,3.574,3.574,0,0,0-2.945,1.483,3.394,3.394,0,0,0-.564,1.421,4.349,4.349,0,0,0,.1,1.776,12.129,12.129,0,0,0,2.528,4.638,9.371,9.371,0,0,1-2.381,2.027,4.109,4.109,0,0,1-1.588.543,3.343,3.343,0,0,1-1.588-.209,3.106,3.106,0,0,1-1.9-2.444,3.461,3.461,0,0,1,.188-1.63c.063-.209.167-.418.271-.669.146-.334.314-.689.481-1.045l.021-.042c1.441-3.112,2.987-6.288,4.6-9.38l.063-.125c.167-.313.334-.648.5-.961a4.6,4.6,0,0,1,.585-.92,2.193,2.193,0,0,1,3.343,0,4.63,4.63,0,0,1,.585.92c.167.313.334.648.5.961l.063.125c1.588,3.113,3.134,6.289,4.575,9.4v.021c.167.334.313.711.481,1.045.1.251.209.46.271.669A3.521,3.521,0,0,1,378.324,323.231Z" transform="translate(-344.958 -198.894)" fill="#fff"/>
        <g id="Group_1532" data-name="Group 1532" transform="translate(125.85 297.069)">
          <g id="Ellipse_322" data-name="Ellipse 322" transform="translate(1.18 4.129)" fill="#fff" stroke="#fff" stroke-width="1">
            <ellipse cx="7.962" cy="7.962" rx="7.962" ry="7.962" stroke="none"/>
            <ellipse cx="7.962" cy="7.962" rx="7.462" ry="7.462" fill="none"/>
          </g>
          <g id="Ellipse_323" data-name="Ellipse 323" transform="translate(18.874 4.129)" fill="#fff" stroke="#fff" stroke-width="1">
            <ellipse cx="7.962" cy="7.962" rx="7.962" ry="7.962" stroke="none"/>
            <ellipse cx="7.962" cy="7.962" rx="7.462" ry="7.462" fill="none"/>
          </g>
          <g id="Group_673" data-name="Group 673" transform="translate(0 0)">
            <path id="Path_898" data-name="Path 898" d="M150.379,389.029a1.462,1.462,0,1,0,1.463-1.463A1.462,1.462,0,0,0,150.379,389.029Z" transform="translate(-142.856 -377.025)" fill="#e4001b"/>
            <path id="Path_899" data-name="Path 899" d="M190.3,389.029a1.462,1.462,0,1,0,1.463-1.463A1.462,1.462,0,0,0,190.3,389.029Z" transform="translate(-165.169 -377.025)" fill="#2e973b"/>
            <g id="Group_670" data-name="Group 670" transform="translate(4.668 7.686)">
              <path id="Path_900" data-name="Path 900" d="M145.171,382.358a4.317,4.317,0,1,0,3.053-1.265A4.289,4.289,0,0,0,145.171,382.358Zm.936,5.17a2.994,2.994,0,1,1,2.118.877A2.975,2.975,0,0,1,146.106,387.528Z" transform="translate(-143.906 -381.093)" fill="#1a1718"/>
            </g>
            <g id="Group_671" data-name="Group 671" transform="translate(22.277 7.686)">
              <path id="Path_901" data-name="Path 901" d="M185.094,382.358a4.317,4.317,0,1,0,3.053-1.265A4.289,4.289,0,0,0,185.094,382.358Zm.936,5.17a2.994,2.994,0,1,1,2.118.877A2.975,2.975,0,0,1,186.029,387.528Z" transform="translate(-183.829 -381.093)" fill="#1a1718"/>
            </g>
            <g id="Group_672" data-name="Group 672" transform="translate(0 0)">
              <path id="Path_902" data-name="Path 902" d="M184.466,374.509a7.222,7.222,0,1,0,7.222,7.222A7.23,7.23,0,0,0,184.466,374.509Z" transform="translate(-157.872 -369.727)" fill="none"/>
              <path id="Path_903" data-name="Path 903" d="M144.544,374.509a7.222,7.222,0,1,0,7.221,7.222A7.23,7.23,0,0,0,144.544,374.509Z" transform="translate(-135.558 -369.727)" fill="none"/>
              <path id="Path_904" data-name="Path 904" d="M166.874,369.994a7.848,7.848,0,0,1,1.573-2.914h-5.9c-.1-.03-.2-.05-.3-.077-.321-.5-2.515-3.335-11.288-3.335-9.627,0-11.333,3.412-11.333,3.412h-6.154a8.308,8.308,0,0,1,1.664,3.2,8.974,8.974,0,0,0,14.026,11.189l2.04,2.856,1.761-2.968a8.98,8.98,0,1,0,13.91-11.362Zm-24.566,12.9a7.222,7.222,0,1,1,7.221-7.221A7.23,7.23,0,0,1,142.308,382.893Zm17.609,0a7.222,7.222,0,1,1,7.222-7.221A7.229,7.229,0,0,1,159.917,382.893Z" transform="translate(-133.322 -363.668)" fill="#1a1718"/>
            </g>
            <path id="Path_905" data-name="Path 905" d="M163.05,366.017c6.154,0,8.469,2.559,8.469,2.559s-6.58-1.1-8.774,7.007c-2.193-8.1-8.774-7.007-8.774-7.007s2.316-2.559,8.47-2.559Z" transform="translate(-144.863 -364.981)" fill="#ffd68a" stroke="#1a1718" stroke-width="1"/>
          </g>
        </g>
        <g id="Group_1605" data-name="Group 1605" transform="translate(295.079 141.974)">
          <path id="path66" d="M5.535,3.634,4.924,1.906-.254-5.015l.93-.231L9.605,2.473,14.86.97A7.525,7.525,0,0,1,16.714.779,15.111,15.111,0,0,0,8.05-7.127a15.156,15.156,0,0,0-19.367,9.2,15.094,15.094,0,0,0-.71,7.354L.561,5.055Z" transform="translate(12.2 8.01)" fill="#fff"/>
          <path id="path70" d="M9.1,0A8.1,8.1,0,0,1,7.288.909l-5.266,1.5L-1.493,13.692l-.912.3.741-8.615-.414-1.79L-7.013,4.992-20.056,8.063A15.149,15.149,0,0,0-10.289,19.3,15.156,15.156,0,0,0,9.076,10.1,15.108,15.108,0,0,0,9.1,0" transform="translate(20.367 10.154)" fill="#fff"/>
          <path id="path74" d="M5.654,3.425,6.07,5.213l-.743,8.615.912-.3L9.754,2.253,15.02.751a8.255,8.255,0,0,0,1.812-.909c-.162-.463-.347-.919-.552-1.365a7.7,7.7,0,0,0-1.853.189L9.17.173.239-7.55l-.929.233L4.488-.4,5.1,1.33.125,2.755l-12.587,4.37c.04.262.085.522.138.78L.721,4.834Z" transform="translate(12.635 10.313)" fill="#eac220"/>
        </g>
        <g id="VRBO_1_" data-name="VRBO (1)" transform="translate(227.43 25.292)">
          <g id="Oval-Copy-4" transform="translate(-0.43 -0.292)" fill="#0d204c">
            <path d="M 25 54 C 21.08679008483887 54 17.28849983215332 53.23268890380859 13.71065998077393 51.71939086914062 C 10.25689029693604 50.25857162475586 7.155920028686523 48.16810989379883 4.493899822235107 45.50609970092773 C 1.831889986991882 42.84408187866211 -0.2585699856281281 39.74311065673828 -1.719390034675598 36.28934097290039 C -3.232690095901489 32.71149826049805 -4 28.91320991516113 -4 25 C -4 21.08679008483887 -3.232690095901489 17.28849983215332 -1.719390034675598 13.71065998077393 C -0.2585699856281281 10.25689029693604 1.831889986991882 7.155920028686523 4.493899822235107 4.493899822235107 C 7.155920028686523 1.831889986991882 10.25689029693604 -0.2585699856281281 13.71065998077393 -1.719390034675598 C 17.28849983215332 -3.232690095901489 21.08679008483887 -4 25 -4 C 28.91320991516113 -4 32.71149826049805 -3.232690095901489 36.28934097290039 -1.719390034675598 C 39.74311065673828 -0.2585699856281281 42.84408187866211 1.831889986991882 45.50609970092773 4.493899822235107 C 48.16810989379883 7.155920028686523 50.25857162475586 10.25689029693604 51.71939086914062 13.71065998077393 C 53.23268890380859 17.28849983215332 54 21.08679008483887 54 25 C 54 28.91320991516113 53.23268890380859 32.71149826049805 51.71939086914062 36.28934097290039 C 50.25857162475586 39.74311065673828 48.16810989379883 42.84408187866211 45.50609970092773 45.50609970092773 C 42.84408187866211 48.16810989379883 39.74311065673828 50.25857162475586 36.28934097290039 51.71939086914062 C 32.71149826049805 53.23268890380859 28.91320991516113 54 25 54 Z" stroke="none"/>
            <path d="M 25 0 C 11.19288635253906 0 0 11.19288635253906 0 25 C 0 38.80711364746094 11.19288635253906 50 25 50 C 38.80711364746094 50 50 38.80711364746094 50 25 C 50 11.19288635253906 38.80711364746094 0 25 0 M 25 -8 C 43.19625854492188 -8 58 6.803741455078125 58 25 C 58 43.19625854492188 43.19625854492188 58 25 58 C 6.803741455078125 58 -8 43.19625854492188 -8 25 C -8 6.803741455078125 6.803741455078125 -8 25 -8 Z" stroke="none" fill="#fff"/>
          </g>
          <g id="Group_6" data-name="Group 6" transform="translate(9.31 12.002)">
            <path id="Path_6" data-name="Path 6" d="M47.191,44.694l.739-1.576L45.418,30.212c-.69-3.645.148-5.221,3-5.763V24.4H45.812c-.739.394-2.364,1.527-1.478,5.812Z" transform="translate(-31.725 -24.4)" fill="#8dc187"/>
            <path id="Path_7" data-name="Path 7" d="M43.152,47.8l.739-1.576-3.3-16.107c-.64-3.1-.345-4.729.69-5.665V24.4H39.506c-.542,1.182-.69,2.315-.1,5.418Z" transform="translate(-29.162 -24.4)" fill="#ff7924"/>
            <path id="Path_8" data-name="Path 8" d="M38.921,51.051l.739-1.527L35.523,29.969c-.739-3.054-.542-4.433-.246-5.369H33.7a18.165,18.165,0,0,0,.64,4.876Z" transform="translate(-26.459 -24.501)" fill="#298cf1"/>
            <path id="Path_9" data-name="Path 9" d="M28.772,24.5H26.9v.049c.837,1.034,1.084,2.266,1.724,4.975L33.6,52.577h1.133l-4.975-23.1A42.3,42.3,0,0,1,28.772,24.5Z" transform="translate(-23.009 -24.451)" fill="#298cf1"/>
            <path id="Path_10" data-name="Path 10" d="M21.02,24.5H19v.049c1.823.739,2.709,2.118,3.448,5.32l4.926,22.658h1.133L23.581,29.721c-.887-3.941-1.773-4.63-2.561-5.221Z" transform="translate(-19 -24.451)" fill="#71c1f5"/>
            <path id="Path_11" data-name="Path 11" d="M67.8,24.449c-2.364,1.379-3.744,3.891-6.7,10.2l.1.049c3.4-6.354,5.32-8.866,9.7-10.2v-.1H67.8Z" transform="translate(-40.363 -24.4)" fill="#298cf1"/>
            <path id="Path_12" data-name="Path 12" d="M60.8,34.6l.1.049c2.758-6.551,3.5-8.374,4.63-10.1V24.5H63.263v.049c.2,2.66-.64,5.074-2.463,10.048Z" transform="translate(-40.21 -24.451)" fill="#ff7924"/>
            <path id="Path_13" data-name="Path 13" d="M59.13,34.5l.1.049c1.773-5.862,2.315-8.472.788-10.048H57.8v.049C60.263,25.436,60.755,27.948,59.13,34.5Z" transform="translate(-38.688 -24.451)" fill="#8dc187"/>
          </g>
        </g>
        <g id="expedia" transform="translate(15.5 214.158)">
          <path id="Fill_1" data-name="Fill 1" d="M32.324,42.569l16.5-27.964c-.272-.773-.577-1.529-.92-2.273L18.692,0,0,26.747c.068.433.145.867.23,1.3Z" transform="translate(0.286 2.321)" fill="#f7b916"/>
          <path id="Fill_3" data-name="Fill 3" d="M29.557,19.411l-1.017-2.88L19.908,5l1.55-.386L36.343,17.475,45.1,14.968a12.664,12.664,0,0,1,3.088-.315A25.267,25.267,0,0,0,.286,29.069l20.979-7.288Z" transform="translate(0 0)" fill="#1f3561"/>
          <g id="Group_7" data-name="Group 7" transform="translate(0.514 16.927)">
            <path id="Clip_6-2" data-name="Clip 6" d="M0,0H50.028V33.64H0Z" transform="translate(0 0)" fill="none"/>
            <g id="Group_7-2" data-name="Group 7" transform="translate(0 0)" clip-path="url(#clip-path)">
              <path id="Fill_5" data-name="Fill 5" d="M48.6,0a13.719,13.719,0,0,1-3.019,1.514l-8.78,2.5-5.855,18.8-1.521.5L30.662,8.953l-.694-2.98L21.744,8.322,0,13.439A25.269,25.269,0,1,0,48.6,0" fill="#1f3561"/>
            </g>
          </g>
        </g>
        <g id="Group_9" data-name="Group 9" transform="translate(-353.458 221.324)">
          <g id="Group_9-2" data-name="Group 9" transform="translate(472.5 61)">
            <circle id="Ellipse_1" data-name="Ellipse 1" cx="25.067" cy="25.067" r="25.067" transform="translate(0 0)" fill="#37e0a1"/>
            <path id="Path_16" data-name="Path 16" d="M1250.465,1799.184l3.025-3.292h-6.707a20.949,20.949,0,0,0-23.575,0h-6.724l3.025,3.292a9.247,9.247,0,1,0,12.513,13.618l2.963,3.227,2.963-3.224a9.25,9.25,0,1,0,12.518-13.621Zm-24.726,13.095a6.259,6.259,0,1,1,6.256-6.259A6.257,6.257,0,0,1,1225.74,1812.278Zm9.247-6.441c0-4.119-2.994-7.654-6.945-9.164a18.045,18.045,0,0,1,13.888,0C1237.981,1798.186,1234.987,1801.719,1234.987,1805.838Zm9.244,6.441a6.259,6.259,0,1,1,6.256-6.259A6.257,6.257,0,0,1,1244.232,1812.278Zm0-9.542a3.28,3.28,0,1,0,3.28,3.281A3.279,3.279,0,0,0,1244.232,1802.736Zm-15.212,3.283a3.279,3.279,0,1,1-3.279-3.281A3.279,3.279,0,0,1,1229.019,1806.02Z" transform="translate(-1209.917 -1779.008)" fill="#040505"/>
          </g>
        </g>
      </g>
      <g id="Group_1608" data-name="Group 1608" transform="translate(493.03 809.694)">
        <ellipse id="Ellipse_1307" data-name="Ellipse 1307" cx="2.019" cy="2.019" rx="2.019" ry="2.019" transform="translate(0 12.262)" fill="#ececec"/>
        <ellipse id="Ellipse_1310" data-name="Ellipse 1310" cx="4.846" cy="4.846" rx="4.846" ry="4.846" transform="translate(10.026)" fill="#ececec"/>
      </g>
      <g id="Group_1614" data-name="Group 1614" transform="translate(558.38 875.651) rotate(-51)">
        <circle id="Ellipse_1307-2" data-name="Ellipse 1307" cx="2.019" cy="2.019" r="2.019" transform="translate(0 12.262)" fill="#ececec"/>
        <ellipse id="Ellipse_1310-2" data-name="Ellipse 1310" cx="4.846" cy="4.846" rx="4.846" ry="4.846" transform="translate(10.026 0)" fill="#ececec"/>
      </g>
      <g id="Group_1609" data-name="Group 1609" transform="matrix(0.574, 0.819, -0.819, 0.574, 496.257, 729.41)">
        <ellipse id="Ellipse_1307-3" data-name="Ellipse 1307" cx="2.019" cy="2.019" rx="2.019" ry="2.019" transform="translate(0 12.262)" fill="#ececec"/>
        <circle id="Ellipse_1310-3" data-name="Ellipse 1310" cx="4.846" cy="4.846" r="4.846" transform="translate(10.026 0)" fill="#ececec"/>
      </g>
      <g id="Group_1610" data-name="Group 1610" transform="translate(567.755 670.771) rotate(99)">
        <ellipse id="Ellipse_1307-4" data-name="Ellipse 1307" cx="2.019" cy="2.019" rx="2.019" ry="2.019" transform="translate(0 12.262)" fill="#ececec"/>
        <ellipse id="Ellipse_1310-4" data-name="Ellipse 1310" cx="4.846" cy="4.846" rx="4.846" ry="4.846" transform="translate(10.026 0)" fill="#ececec"/>
      </g>
      <g id="Group_1613" data-name="Group 1613" transform="translate(648.656 853.215) rotate(-90)">
        <circle id="Ellipse_1307-5" data-name="Ellipse 1307" cx="2.019" cy="2.019" r="2.019" transform="translate(0 12.262)" fill="#ececec"/>
        <ellipse id="Ellipse_1310-5" data-name="Ellipse 1310" cx="4.846" cy="4.846" rx="4.846" ry="4.846" transform="translate(10.026)" fill="#ececec"/>
      </g>
      <g id="Group_1611" data-name="Group 1611" transform="matrix(-0.883, 0.469, -0.469, -0.883, 667.637, 704.761)">
        <ellipse id="Ellipse_1307-6" data-name="Ellipse 1307" cx="2.019" cy="2.019" rx="2.019" ry="2.019" transform="translate(0 12.262)" fill="#ececec"/>
        <ellipse id="Ellipse_1310-6" data-name="Ellipse 1310" cx="4.846" cy="4.846" rx="4.846" ry="4.846" transform="translate(10.026 0)" fill="#ececec"/>
      </g>
      <g id="Group_1612" data-name="Group 1612" transform="translate(697.835 783.062) rotate(-150)">
        <ellipse id="Ellipse_1307-7" data-name="Ellipse 1307" cx="2.019" cy="2.019" rx="2.019" ry="2.019" transform="translate(0 12.262)" fill="#ececec"/>
        <ellipse id="Ellipse_1310-7" data-name="Ellipse 1310" cx="4.846" cy="4.846" rx="4.846" ry="4.846" transform="translate(10.026 0)" fill="#ececec"/>
      </g>
    </g>
    <g id="holidu" transform="translate(710 712.203)">
      <g id="Artboard">
        <g id="holidu-2" data-name="holidu">
          <circle id="Oval-Copy-4-2" data-name="Oval-Copy-4" cx="25.513" cy="25.513" r="25.513" fill="#2b4ad7"/>
          <g id="Page-1" transform="translate(9.185 16.839)">
            <g id="Group-3" transform="translate(0 12.116)">
              <path id="Fill-1" d="M2.326,3.346a.968.968,0,1,1,.968-.968.968.968,0,0,1-.968.968m0-3.294A2.326,2.326,0,1,0,4.651,2.378,2.326,2.326,0,0,0,2.326.052" transform="translate(0 -0.052)" fill="#fff" fill-rule="evenodd"/>
            </g>
            <path id="Fill-4" d="M8.426,14.531a22.436,22.436,0,0,0,7.964,1.332c5.761,0,8.793-2.522,9.121-2.811V6.623l-5.721-5.4a.7.7,0,0,1,.96-1.018l5.838,5.505a.691.691,0,0,1,.061.066.7.7,0,0,1,.262.544v7.036a.693.693,0,0,1-.033.212l.026.031-.069.073a.705.705,0,0,1-.314.311c-3.05,2.847-8.5,3.352-10.216,3.324-5.908-.174-8.253-1.506-8.253-1.506a1.08,1.08,0,0,1,.376-1.274" transform="translate(-3.906 -0.01)" fill="#fff" fill-rule="evenodd"/>
            <path id="Fill-6" d="M37.555,14.51a22.437,22.437,0,0,1-7.964,1.332c-5.761,0-8.793-2.522-9.121-2.811V6.6l5.721-5.4A.7.7,0,1,0,25.231.19L19.394,5.695a.7.7,0,0,0-.061.066.7.7,0,0,0-.262.544v7.036a.692.692,0,0,0,.033.212l-.026.031.069.073a.706.706,0,0,0,.314.311c3.05,2.847,8.5,3.352,10.216,3.324,5.908-.174,8.253-1.506,8.253-1.506a1.08,1.08,0,0,0-.376-1.274" transform="translate(-9.34 0)" fill="#ff6061" fill-rule="evenodd"/>
            <g id="Group-10" transform="translate(27.955 12.116)">
              <path id="Fill-8" d="M2.371,3.346a.968.968,0,1,1,.968-.968.968.968,0,0,1-.968.968m0-3.294A2.326,2.326,0,1,0,4.7,2.378,2.326,2.326,0,0,0,2.371.052" transform="translate(-0.045 -0.052)" fill="#ff6061" fill-rule="evenodd"/>
            </g>
          </g>
        </g>
      </g>
    </g>
  </g>
</svg>
